<svg xmlns="http://www.w3.org/2000/svg" xmlns:xlink="http://www.w3.org/1999/xlink" width="173"
    height="32" viewBox="0 0 173 32">
    <defs>
        <path id="a"
            d="M8.016,24 L11.112,11.928 L14.28,24 L18.144,24 L22.248,7.2 L18.84,7.2 L16.152,19.224 L16.128,19.224 L12.912,7.2 L9.432,7.2 L6.216,19.224 L6.192,19.224 L3.6,7.2 L0,7.2 L4.152,24 L8.016,24 Z M28.128,24.288 C29.392,24.288 30.504,24 31.464,23.424 C32.424,22.848 33.144,21.984 33.624,20.832 L33.624,20.832 L30.384,20.496 C29.952,21.248 29.216,21.624 28.176,21.624 C27.504,21.624 26.936,21.412 26.472,20.988 C26.008,20.564 25.736,20.04 25.656,19.416 L25.656,19.416 L33.84,19.416 L33.84,19.296 C33.84,17.12 33.292,15.48 32.196,14.376 C31.1,13.272 29.728,12.72 28.08,12.72 C26.432,12.72 25.068,13.264 23.988,14.352 C22.908,15.44 22.368,16.824 22.368,18.504 C22.368,20.184 22.916,21.568 24.012,22.656 C25.108,23.744 26.48,24.288 28.128,24.288 Z M30.504,17.328 L25.584,17.328 C25.712,16.72 26,16.232 26.448,15.864 C26.896,15.496 27.44,15.312 28.08,15.312 C28.72,15.312 29.264,15.504 29.712,15.888 C30.16,16.272 30.424,16.752 30.504,17.328 L30.504,17.328 Z M42.216,24.288 C43.736,24.288 45.008,23.74 46.032,22.644 C47.056,21.548 47.568,20.168 47.568,18.504 C47.568,16.84 47.06,15.46 46.044,14.364 C45.028,13.268 43.76,12.72 42.24,12.72 C41.44,12.72 40.728,12.88 40.104,13.2 C39.48,13.52 39.032,13.928 38.76,14.424 C38.76,14.36 38.768,14.112 38.784,13.68 C38.8,13.248 38.808,12.896 38.808,12.624 L38.808,12.624 L38.808,7.2 L35.688,7.2 L35.688,24 L38.808,24 L38.808,22.608 C39.096,23.088 39.548,23.488 40.164,23.808 C40.78,24.128 41.464,24.288 42.216,24.288 Z M41.544,21.528 C40.728,21.528 40.056,21.236 39.528,20.652 C39,20.068 38.736,19.352 38.736,18.504 C38.736,17.64 39,16.924 39.528,16.356 C40.056,15.788 40.728,15.504 41.544,15.504 C42.36,15.504 43.032,15.792 43.56,16.368 C44.088,16.928 44.352,17.64 44.352,18.504 C44.352,19.352 44.088,20.068 43.56,20.652 C43.032,21.236 42.36,21.528 41.544,21.528 Z M59.568,24.288 C61.216,24.288 62.608,23.744 63.744,22.656 C64.88,21.552 65.448,20.168 65.448,18.504 C65.448,16.84 64.88,15.46 63.744,14.364 C62.608,13.268 61.216,12.72 59.568,12.72 C57.92,12.72 56.528,13.268 55.392,14.364 C54.256,15.46 53.688,16.84 53.688,18.504 C53.688,20.168 54.256,21.548 55.392,22.644 C56.528,23.74 57.92,24.288 59.568,24.288 Z M59.568,21.504 C58.752,21.504 58.088,21.22 57.576,20.652 C57.064,20.084 56.808,19.368 56.808,18.504 C56.808,17.64 57.064,16.924 57.576,16.356 C58.088,15.788 58.752,15.504 59.568,15.504 C60.368,15.504 61.024,15.788 61.536,16.356 C62.048,16.924 62.304,17.64 62.304,18.504 C62.304,19.368 62.048,20.084 61.536,20.652 C61.024,21.22 60.368,21.504 59.568,21.504 Z M71.304,24 L71.304,15.648 L73.416,15.648 L73.416,13.008 L71.304,13.008 L71.304,10.776 C71.304,10.424 71.384,10.184 71.544,10.056 C71.704,9.928 71.952,9.864 72.288,9.864 C72.512,9.864 72.944,9.904 73.584,9.984 L73.584,9.984 L73.584,7.128 L71.304,6.984 C70.376,6.984 69.624,7.216 69.048,7.68 C68.472,8.144 68.184,8.88 68.184,9.888 L68.184,9.888 L68.184,13.008 L66.456,13.008 L66.456,15.648 L68.184,15.648 L68.184,24 L71.304,24 Z M84.6,24.288 C86.36,24.288 87.772,23.796 88.836,22.812 C89.9,21.828 90.432,20.664 90.432,19.32 C90.432,18.12 90.08,17.128 89.376,16.344 C88.672,15.56 87.6,14.832 86.16,14.16 L86.16,14.16 L84.768,13.512 C83.552,12.952 82.944,12.288 82.944,11.52 C82.944,11.04 83.152,10.656 83.568,10.368 C83.984,10.08 84.48,9.936 85.056,9.936 C86.24,9.936 87.424,10.512 88.608,11.664 L88.608,11.664 L90.528,9.264 C88.72,7.696 86.872,6.912 84.984,6.912 C83.432,6.912 82.108,7.344 81.012,8.208 C79.916,9.072 79.368,10.216 79.368,11.64 C79.368,13.624 80.592,15.192 83.04,16.344 L83.04,16.344 L84.510963,17.0339259 C85.2734321,17.3997531 85.8431111,17.7497778 86.22,18.084 C86.644,18.46 86.856,18.912 86.856,19.44 C86.856,19.968 86.644,20.404 86.22,20.748 C85.796,21.092 85.232,21.264 84.528,21.264 C83.872,21.264 83.176,21.088 82.44,20.736 C81.704,20.384 81.032,19.896 80.424,19.272 L80.424,19.272 L78.576,21.768 C80.304,23.448 82.312,24.288 84.6,24.288 Z M97.632,24.288 C98.896,24.288 100.02,23.968 101.004,23.328 C101.988,22.688 102.656,21.824 103.008,20.736 L103.008,20.736 L100.08,19.824 C99.632,20.944 98.824,21.504 97.656,21.504 C96.84,21.504 96.176,21.22 95.664,20.652 C95.152,20.084 94.896,19.368 94.896,18.504 C94.896,17.64 95.152,16.924 95.664,16.356 C96.176,15.788 96.84,15.504 97.656,15.504 C98.216,15.504 98.708,15.656 99.132,15.96 C99.556,16.264 99.872,16.672 100.08,17.184 L100.08,17.184 L103.008,16.296 C102.656,15.208 101.988,14.34 101.004,13.692 C100.02,13.044 98.896,12.72 97.632,12.72 C95.984,12.72 94.596,13.268 93.468,14.364 C92.34,15.46 91.776,16.84 91.776,18.504 C91.776,20.168 92.34,21.548 93.468,22.644 C94.596,23.74 95.984,24.288 97.632,24.288 Z M106.92,11.208 C107.48,11.208 107.956,11.016 108.348,10.632 C108.74,10.248 108.936,9.776 108.936,9.216 C108.936,8.656 108.74,8.18 108.348,7.788 C107.956,7.396 107.48,7.2 106.92,7.2 C106.376,7.2 105.908,7.396 105.516,7.788 C105.124,8.18 104.928,8.656 104.928,9.216 C104.928,9.776 105.12,10.248 105.504,10.632 C105.888,11.016 106.36,11.208 106.92,11.208 Z M108.624,24 L108.624,13.008 L103.968,13.008 L103.968,15.648 L105.504,15.648 L105.504,24 L108.624,24 Z M116.376,24.288 C117.64,24.288 118.752,24 119.712,23.424 C120.672,22.848 121.392,21.984 121.872,20.832 L121.872,20.832 L118.632,20.496 C118.2,21.248 117.464,21.624 116.424,21.624 C115.752,21.624 115.184,21.412 114.72,20.988 C114.256,20.564 113.984,20.04 113.904,19.416 L113.904,19.416 L122.088,19.416 L122.088,19.296 C122.088,17.12 121.54,15.48 120.444,14.376 C119.348,13.272 117.976,12.72 116.328,12.72 C114.68,12.72 113.316,13.264 112.236,14.352 C111.156,15.44 110.616,16.824 110.616,18.504 C110.616,20.184 111.164,21.568 112.26,22.656 C113.356,23.744 114.728,24.288 116.376,24.288 Z M118.752,17.328 L113.832,17.328 C113.96,16.72 114.248,16.232 114.696,15.864 C115.144,15.496 115.688,15.312 116.328,15.312 C116.968,15.312 117.512,15.504 117.96,15.888 C118.408,16.272 118.672,16.752 118.752,17.328 L118.752,17.328 Z M127.056,24 L127.056,16.872 C127.728,16.04 128.504,15.624 129.384,15.624 C129.912,15.624 130.356,15.788 130.716,16.116 C131.076,16.444 131.256,16.936 131.256,17.592 L131.256,17.592 L131.256,24 L134.376,24 L134.376,16.8 C134.376,15.536 134,14.54 133.248,13.812 C132.496,13.084 131.512,12.72 130.296,12.72 C128.92,12.72 127.8,13.248 126.936,14.304 L126.936,14.304 L126.984,13.44 L126.984,13.008 L123.936,13.008 L123.936,24 L127.056,24 Z M142.104,24.288 C143.368,24.288 144.492,23.968 145.476,23.328 C146.46,22.688 147.128,21.824 147.48,20.736 L147.48,20.736 L144.552,19.824 C144.104,20.944 143.296,21.504 142.128,21.504 C141.312,21.504 140.648,21.22 140.136,20.652 C139.624,20.084 139.368,19.368 139.368,18.504 C139.368,17.64 139.624,16.924 140.136,16.356 C140.648,15.788 141.312,15.504 142.128,15.504 C142.688,15.504 143.18,15.656 143.604,15.96 C144.028,16.264 144.344,16.672 144.552,17.184 L144.552,17.184 L147.48,16.296 C147.128,15.208 146.46,14.34 145.476,13.692 C144.492,13.044 143.368,12.72 142.104,12.72 C140.456,12.72 139.068,13.268 137.94,14.364 C136.812,15.46 136.248,16.84 136.248,18.504 C136.248,20.168 136.812,21.548 137.94,22.644 C139.068,23.74 140.456,24.288 142.104,24.288 Z M154.392,24.288 C155.656,24.288 156.768,24 157.728,23.424 C158.688,22.848 159.408,21.984 159.888,20.832 L159.888,20.832 L156.648,20.496 C156.216,21.248 155.48,21.624 154.44,21.624 C153.768,21.624 153.2,21.412 152.736,20.988 C152.272,20.564 152,20.04 151.92,19.416 L151.92,19.416 L160.104,19.416 L160.104,19.296 C160.104,17.12 159.556,15.48 158.46,14.376 C157.364,13.272 155.992,12.72 154.344,12.72 C152.696,12.72 151.332,13.264 150.252,14.352 C149.172,15.44 148.632,16.824 148.632,18.504 C148.632,20.184 149.18,21.568 150.276,22.656 C151.372,23.744 152.744,24.288 154.392,24.288 Z M156.768,17.328 L151.848,17.328 C151.976,16.72 152.264,16.232 152.712,15.864 C153.16,15.496 153.704,15.312 154.344,15.312 C154.984,15.312 155.528,15.504 155.976,15.888 C156.424,16.272 156.688,16.752 156.768,17.328 L156.768,17.328 Z" />
        <path id="b"
            d="M163.373,5 L163.373,2.12 L164.418,2.12 L164.418,1.5 L161.638,1.5 L161.638,2.12 L162.683,2.12 L162.683,5 L163.373,5 Z M165.528,5 L165.528,2.525 L166.218,4.25 L166.953,4.25 L167.623,2.525 L167.623,5 L168.313,5 L168.313,1.5 L167.378,1.5 L166.598,3.485 L165.833,1.5 L164.853,1.5 L164.853,5 L165.528,5 Z" />
    </defs>
    <g transform="translate(.432 1)">
        <use xlink:href="#a" />
        <use xlink:href="#a" />
        <use xlink:href="#b" />
        <use xlink:href="#b" />
    </g>
</svg>